<?xml version="1.0" standalone="no"?><!DOCTYPE svg PUBLIC "-//W3C//DTD SVG 1.1//EN" "http://www.w3.org/Graphics/SVG/1.1/DTD/svg11.dtd"><svg class="icon" width="200px" height="200.00px" viewBox="0 0 1024 1024" version="1.1" xmlns="http://www.w3.org/2000/svg"><path d="M960 225.31v572.95c0 5.61-0.65 11.01-1.73 16.4-1.08 5.39-2.81 10.57-4.96 15.54-2.16 4.96-4.75 9.71-7.98 14.24-6.26 9.06-14.03 16.83-22.87 22.88-4.53 3.02-9.28 5.83-14.24 7.99-4.96 2.16-10.36 3.88-15.54 5.18-5.39 1.08-10.79 1.73-16.4 1.73H147.95c-5.61 0-11.01-0.65-16.4-1.73-5.4-1.08-10.57-2.8-15.54-4.96s-9.71-4.96-14.24-7.99c-9.06-6.26-16.83-14.02-22.87-22.88-3.02-4.53-5.83-9.28-7.98-14.24-2.16-4.96-3.88-10.14-5.18-15.54-1.08-5.4-1.73-11.01-1.73-16.4V225.52c0-5.61 0.65-11.01 1.73-16.4s2.81-10.57 4.96-15.54c2.16-4.96 4.75-9.71 7.98-14.24 6.26-9.06 14.03-16.83 22.87-22.88 4.53-3.02 9.28-5.83 14.24-7.99 4.96-2.16 10.14-3.88 15.54-4.96 5.39-1.08 11.01-1.73 16.4-1.73h728.33c5.61 0 11.01 0.65 16.4 1.73 5.39 1.08 10.57 2.8 15.54 4.96 4.96 2.16 9.71 4.75 14.24 7.99 9.06 6.26 16.83 14.02 22.87 22.88 3.02 4.53 5.83 9.28 7.98 14.24 2.16 4.96 3.88 10.14 4.96 15.54 1.3 5.18 1.73 10.58 1.95 16.19z m-95.17 286.58c0 4.1 0.65 8.41 2.16 12.3 4.53 13.38 17.48 22.01 31.51 21.36 18.13-0.43 32.37-15.54 31.72-33.67-0.43-18.13-15.54-32.37-33.66-31.72-17.27 0.44-31.3 14.25-31.73 31.73z m-717.1 264.14c-0.86 6.26 1.08 12.52 4.96 17.48 4.96 3.88 11.22 5.61 17.48 4.96h632.94c12.08-0.86 21.8-10.36 22.44-22.44V247.75c2.59-9.93-3.45-20.07-13.38-22.44a21.29 21.29 0 0 0-9.06 0H169.96c-12.08 0.86-21.8 10.36-22.44 22.44l0.21 528.28z" /></svg>