<?xml version="1.0" standalone="no"?><!DOCTYPE svg PUBLIC "-//W3C//DTD SVG 1.1//EN" "http://www.w3.org/Graphics/SVG/1.1/DTD/svg11.dtd"><svg class="icon" width="200px" height="200.00px" viewBox="0 0 1024 1024" version="1.1" xmlns="http://www.w3.org/2000/svg"><path d="M0 0h1024v1024H0z" fill="#FFFFFF" /><path d="M160 108c-44.112 0-80 35.888-80 80v468c0 44.112 35.888 80 80 80h704c44.112 0 80-35.888 80-80V188c0-44.112-35.888-80-80-80H160m0-80h704c88.366 0 160 71.634 160 160v468c0 88.366-71.634 160-160 160H160c-88.366 0-160-71.634-160-160V188c0-88.366 71.634-160 160-160z" fill="#707070" /><path d="M0 916m12 0l1000 0q12 0 12 12l0 56q0 12-12 12l-1000 0q-12 0-12-12l0-56q0-12 12-12Z" fill="#707070" /></svg>