<?xml version="1.0" standalone="no"?><!DOCTYPE svg PUBLIC "-//W3C//DTD SVG 1.1//EN" "http://www.w3.org/Graphics/SVG/1.1/DTD/svg11.dtd"><svg class="icon" width="200px" height="200.00px" viewBox="0 0 1024 1024" version="1.1" xmlns="http://www.w3.org/2000/svg"><path d="M762 64.2H262c-27.5 0-50 22.5-50 50v795.7c0 27.5 22.5 50 50 50h500c27.5 0 50-22.5 50-50V114.2c0-27.5-22.5-50-50-50zM272 668.4V124.2h480v544.3H272v-0.1z m0 231.4V728.4h480v171.4H272z"  /><path d="M512 768.4c-27.6 0-50 22.4-50 50s22.4 50 50 50 50-22.4 50-50-22.4-50-50-50z"  /></svg>