<?xml version="1.0" standalone="no"?><!DOCTYPE svg PUBLIC "-//W3C//DTD SVG 1.1//EN" "http://www.w3.org/Graphics/SVG/1.1/DTD/svg11.dtd"><svg class="icon" width="200px" height="200.00px" viewBox="0 0 1024 1024" version="1.1" xmlns="http://www.w3.org/2000/svg"><path d="M896 192h-160a160 160 0 1 0-320 0H256a64 64 0 0 0-64 64v160a160 160 0 1 0 0 320V896a64 64 0 0 0 64 64h224v-64a96 96 0 0 1 192 0v64H896a64 64 0 0 0 64-64v-224h-64a96 96 0 0 1 0-192h64V256a64 64 0 0 0-64-64z m-160 384a160 160 0 0 0 160 160V896h-160a160 160 0 1 0-320 0H256v-224H192a96 96 0 1 1 0-192h64V256h224V192a96 96 0 0 1 192 0v64H896v160A160 160 0 0 0 736 576z" /></svg>